<?xml version="1.0" encoding="UTF-8"?> <svg xmlns="http://www.w3.org/2000/svg" width="63" height="69" viewBox="0 0 63 69" fill="none"><path d="M50.9581 11.5608L49.4722 13.0468C48.915 13.6039 48.915 14.5072 49.4722 15.0643L51.9412 17.5333C52.4983 18.0904 53.4016 18.0904 53.9587 17.5333L55.4447 16.0473C56.0018 15.4902 56.0018 14.5869 55.4447 14.0298L52.9757 11.5608C52.4185 11.0037 51.5153 11.0037 50.9581 11.5608Z" fill="#0B0F2F"></path><path fill-rule="evenodd" clip-rule="evenodd" d="M21.6172 0.187134H39.0641C39.83 0.187134 40.4508 0.702714 40.4508 1.33871V4.09063C40.4508 4.72663 39.83 5.24221 39.0641 5.24221H33.4006V7.95901H27.0557V5.24221H21.6172C20.8513 5.24221 20.2305 4.72663 20.2305 4.09063V1.33871C20.2305 0.702714 20.8513 0.187134 21.6172 0.187134Z" fill="#0B0F2F"></path><path d="M31.3516 68.1872C48.3905 68.1872 62.2032 54.3744 62.2032 37.3356C62.2032 20.2967 48.3905 6.48395 31.3516 6.48395C14.3128 6.48395 0.500031 20.2967 0.500031 37.3356C0.500031 54.3744 14.3128 68.1872 31.3516 68.1872Z" fill="#0B0F2F"></path><path d="M31.3517 65.9031C46.986 65.9031 59.6601 53.229 59.6601 37.5947C59.6601 21.9604 46.986 9.28625 31.3517 9.28625C15.7174 9.28625 3.04324 21.9604 3.04324 37.5947C3.04324 53.229 15.7174 65.9031 31.3517 65.9031Z" fill="url(#paint0_linear_557_817)"></path><path d="M44.4949 52.76C46.7283 52.76 48.5389 51.1757 48.5389 49.2214C48.5389 47.2671 46.7283 45.6829 44.4949 45.6829C42.2614 45.6829 40.4508 47.2671 40.4508 49.2214C40.4508 51.1757 42.2614 52.76 44.4949 52.76Z" fill="#D9A9FF"></path><path d="M49.55 41.6388C51.7834 41.6388 53.594 39.8282 53.594 37.5947C53.594 35.3612 51.7834 33.5507 49.55 33.5507C47.3165 33.5507 45.5059 35.3612 45.5059 37.5947C45.5059 39.8282 47.3165 41.6388 49.55 41.6388Z" fill="#D9A9FF"></path><path d="M32 57.1871C21.2305 57.1871 12.5 48.4567 12.5 37.6871C12.5 26.9176 21.2305 18.1871 32 18.1871" stroke="#7BFFCD" stroke-width="3" stroke-linecap="round"></path><path d="M32.7661 34.1752V18.8949C32.7661 17.9815 32.0266 17.2419 31.1132 17.2419C30.1999 17.2419 29.4603 17.9815 29.4603 18.8949V34.1752C28.3166 34.7733 27.5407 35.9695 27.5447 37.3517C27.5528 39.243 29.1087 40.8393 31.0001 40.8959C33.0207 40.9565 34.6777 39.34 34.6777 37.3315C34.6777 35.9574 33.9017 34.7692 32.7621 34.1711L32.7661 34.1752Z" fill="#0B0F2F"></path><defs><linearGradient id="paint0_linear_557_817" x1="3.04324" y1="37.5947" x2="59.6601" y2="45.2784" gradientUnits="userSpaceOnUse"><stop stop-color="#0AF6A1"></stop><stop offset="0.338535" stop-color="#1FC7D1"></stop><stop offset="0.677091" stop-color="#5F7DA1"></stop><stop offset="1" stop-color="#C172FF"></stop></linearGradient></defs></svg> 