<?xml version="1.0" encoding="UTF-8"?> <svg xmlns="http://www.w3.org/2000/svg" width="63" height="63" viewBox="0 0 63 63" fill="none"><path d="M62.4975 31.1859C62.4975 37.7602 60.4543 43.8517 56.9625 48.8657C51.3666 56.9165 42.0477 62.1871 31.4987 62.1871C20.9498 62.1871 12.2637 57.2672 6.61436 49.6763C2.77192 44.515 0.5 38.1134 0.5 31.1859C0.5 14.0652 14.378 0.187134 31.5013 0.187134C48.6245 0.187134 62.5 14.0652 62.5 31.1859H62.4975Z" fill="#0B0F2F"></path><path d="M59.5 31.1859C59.5 37.1233 57.6544 42.6258 54.5014 47.155C49.4462 54.4269 41.0291 59.1871 31.5012 59.1871C21.9733 59.1871 14.1264 54.7439 9.02455 47.8874C5.55205 43.2254 3.5 37.4453 3.5 31.1859C3.5 15.7231 16.0359 3.18713 31.5012 3.18713C35.2539 3.18713 38.8321 3.9244 42.1006 5.26376C51.309 9.03363 58.0623 17.5662 59.2936 27.7994C59.4312 28.9102 59.5 30.0407 59.5 31.1859Z" fill="url(#paint0_linear_557_1746)"></path><path d="M15.9451 13.6734C15.1464 14.9514 13.7701 14.8457 14.2715 15.6812C14.7728 16.5168 15.3602 16.6004 17.0313 16.5168C18.7024 16.4333 19.7911 17.6891 20.1278 18.8588C20.4645 20.0286 20.1278 22.4567 21.5507 22.5402C22.9736 22.6238 26.4019 22.3731 27.4906 21.1173C28.5793 19.8615 30.5871 15.9295 29.9162 13.671C29.2453 11.4125 27.0728 9.5718 25.2321 9.82247C23.3914 10.0731 21.1329 11.9138 19.5429 11.9138C17.9529 11.9138 16.3628 13.0025 15.9451 13.671V13.6734Z" fill="#0B0F2F"></path><path d="M59.2936 27.7994C59.0552 29.1117 57.856 29.9891 56.8557 30.1611C55.8506 30.3307 53.0908 30.8246 52.7566 29.6548C52.4223 28.4826 52.9237 27.8141 52.7566 26.4748C52.5895 25.1379 48.2371 25.1379 47.318 27.0621C46.3989 28.9839 44.2215 30.2397 42.1007 30.1562C39.9773 30.0726 36.3574 27.9812 34.6863 26.8926C33.0127 25.8063 34.4331 21.8743 34.6863 18.7778C34.9369 15.6837 35.4383 13.5923 36.8612 13.3417C38.2816 13.0885 39.5375 12.1694 39.1197 10.7465C38.7019 9.32359 37.1119 9.49316 37.4461 8.40447C37.7803 7.31578 40.2059 5.97888 42.1007 5.26373C51.3091 9.0336 58.0624 17.5662 59.2936 27.7994Z" fill="#0B0F2F"></path><path d="M54.5013 47.155C49.4462 54.4269 41.0291 59.1871 31.5012 59.1871C21.9733 59.1871 14.1264 54.7439 9.02454 47.8873C9.07614 47.1403 9.33664 46.4448 10.0887 46.3022C11.8458 45.968 16.5299 45.4667 16.7805 42.6208C17.0337 39.7775 16.1121 38.4381 14.8587 36.8481C13.6029 35.2605 14.4483 32.7169 14.1633 31.7462C13.7995 30.5002 13.77 28.6497 14.5221 27.9813C15.2765 27.3128 15.7779 25.305 16.1121 24.467C16.4463 23.6314 18.6212 22.7098 19.5428 24.8848C20.4619 27.0621 19.4593 29.79 19.5428 31.1859C19.6264 32.5818 21.3835 33.9211 23.1407 34.506C24.8978 35.0934 28.4096 37.1848 28.2425 39.0254C28.0754 40.8661 26.9326 41.2913 26.5689 42.6208C26.0676 44.4615 30.0734 45.5502 31.5012 45.3831C32.929 45.216 37.2789 44.8818 37.1953 46.7225C37.1118 48.5607 35.4382 49.1481 33.3468 49.4823C31.2555 49.8165 28.7463 50.3179 26.3183 50.0672C23.8927 49.8165 24.6176 52.4682 27.1563 53.4979C36.436 57.2653 47.3892 54.5104 54.5013 47.155Z" fill="#0B0F2F"></path><defs><linearGradient id="paint0_linear_557_1746" x1="3.5" y1="31.1871" x2="59.5" y2="38.7871" gradientUnits="userSpaceOnUse"><stop stop-color="#0AF6A1"></stop><stop offset="0.338535" stop-color="#1FC7D1"></stop><stop offset="0.677091" stop-color="#5F7DA1"></stop><stop offset="1" stop-color="#C172FF"></stop></linearGradient></defs></svg> 