<?xml version="1.0" encoding="UTF-8"?> <svg xmlns="http://www.w3.org/2000/svg" width="636" height="405" viewBox="0 0 636 405" fill="none"><rect x="42.7119" y="45.1923" width="499.386" height="332.924" rx="11.4793" fill="#40456B"></rect><path d="M48.2473 58.187C48.2473 53.7687 51.829 50.187 56.2473 50.187H528.247C532.666 50.187 536.247 53.7687 536.247 58.187V328.687C536.247 334.762 531.322 339.687 525.247 339.687H59.2473C53.1721 339.687 48.2473 334.762 48.2473 328.687V58.187Z" fill="#EAEAEA"></path><rect x="13.2473" y="357.187" width="560" height="29" rx="5.28707" fill="url(#paint0_linear_207_1085)"></rect><path d="M412.843 227.064H409.737C408.665 227.064 407.796 227.933 407.796 229.005C407.796 230.077 408.665 230.946 409.737 230.946H412.843C413.915 230.946 414.784 230.077 414.784 229.005C414.784 227.933 413.915 227.064 412.843 227.064Z" fill="#2F6AAE"></path><path d="M441.126 186.299H438.137C437.033 186.299 436.137 187.195 436.137 188.299V192.064C436.137 193.169 437.033 194.064 438.137 194.064H441.126C442.23 194.064 443.126 193.169 443.126 192.064V188.299C443.126 187.195 442.23 186.299 441.126 186.299Z" fill="#2F6AAE"></path><path d="M459.955 159.511H456.967C455.862 159.511 454.967 160.407 454.967 161.511V188.958C454.967 190.063 455.862 190.958 456.967 190.958H459.955C461.06 190.958 461.955 190.063 461.955 188.958V161.511C461.955 160.407 461.06 159.511 459.955 159.511Z" fill="#2F6AAE"></path><path d="M478.784 146.699H475.796C474.691 146.699 473.796 147.595 473.796 148.699V167.023C473.796 168.128 474.691 169.023 475.796 169.023H478.784C479.889 169.023 480.784 168.128 480.784 167.023V148.699C480.784 147.595 479.889 146.699 478.784 146.699Z" fill="#2F6AAE"></path><path d="M498.614 165.917H493.626C493.073 165.917 492.626 166.365 492.626 166.917V181.223C492.626 181.776 493.073 182.223 493.626 182.223H498.614C499.166 182.223 499.614 181.776 499.614 181.223V166.917C499.614 166.365 499.166 165.917 498.614 165.917Z" fill="#2F6AAE"></path><path d="M508.126 180.088H503.137C502.585 180.088 502.137 180.535 502.137 181.088V182.582C502.137 183.134 502.585 183.582 503.137 183.582H508.126C508.678 183.582 509.126 183.134 509.126 182.582V181.088C509.126 180.535 508.678 180.088 508.126 180.088Z" fill="#2F6AAE"></path><path fill-rule="evenodd" clip-rule="evenodd" d="M299.284 247.252V251.62C299.284 252.102 298.893 252.494 298.411 252.494C297.928 252.494 297.537 252.102 297.537 251.62V247.252H296.82C295.716 247.252 294.82 246.357 294.82 245.252V227.705C294.82 226.601 295.716 225.705 296.82 225.705H297.537V215.126C297.537 214.644 297.928 214.252 298.411 214.252C298.893 214.252 299.284 214.644 299.284 215.126V225.705H299.808C300.913 225.705 301.808 226.601 301.808 227.705V245.252C301.808 246.357 300.913 247.252 299.808 247.252H299.284Z" fill="#2F6AAE"></path><path fill-rule="evenodd" clip-rule="evenodd" d="M306.332 220.658H309.32C310.424 220.658 311.32 221.553 311.32 222.658V227.005C311.32 228.11 310.424 229.005 309.32 229.005H308.602V235.702C308.602 236.185 308.211 236.576 307.728 236.576C307.246 236.576 306.855 236.185 306.855 235.702V229.005H306.332C305.227 229.005 304.332 228.11 304.332 227.005V222.658C304.332 221.553 305.227 220.658 306.332 220.658Z" fill="#2F6AAE"></path><path fill-rule="evenodd" clip-rule="evenodd" d="M327.432 223.182V226.191C327.432 226.673 327.041 227.064 326.558 227.064C326.076 227.064 325.685 226.673 325.685 226.191V223.182H325.005C323.987 223.182 323.161 222.356 323.161 221.338C323.161 220.32 323.987 219.494 325.005 219.494H325.685V217.65C325.685 217.167 326.076 216.776 326.558 216.776C327.041 216.776 327.432 217.167 327.432 217.65V219.494H328.305C329.324 219.494 330.149 220.32 330.149 221.338C330.149 222.356 329.324 223.182 328.305 223.182H327.432Z" fill="#2F6AAE"></path><path fill-rule="evenodd" clip-rule="evenodd" d="M344.514 211.34H343.991C342.886 211.34 341.991 212.236 341.991 213.34V225.646C341.991 226.751 342.886 227.646 343.991 227.646H346.979C348.084 227.646 348.979 226.751 348.979 225.646V213.34C348.979 212.236 348.084 211.34 346.979 211.34H346.261V200.373C346.261 199.891 345.87 199.5 345.388 199.5C344.905 199.5 344.514 199.891 344.514 200.373V211.34Z" fill="#2F6AAE"></path><path fill-rule="evenodd" clip-rule="evenodd" d="M381.649 206.876H384.638C385.742 206.876 386.638 207.772 386.638 208.876V215.164C386.638 216.269 385.742 217.164 384.638 217.164H383.92V220.367C383.92 220.849 383.529 221.24 383.047 221.24C382.564 221.24 382.173 220.849 382.173 220.367V217.164H381.649C380.545 217.164 379.649 216.269 379.649 215.164V208.876C379.649 207.772 380.545 206.876 381.649 206.876Z" fill="#2F6AAE"></path><path fill-rule="evenodd" clip-rule="evenodd" d="M393.432 213.864V215.126C393.432 215.608 393.041 215.999 392.558 215.999C392.076 215.999 391.685 215.608 391.685 215.126V213.864H390.967C389.863 213.864 388.967 212.969 388.967 211.864V202.47C388.967 201.365 389.863 200.47 390.967 200.47H391.685V195.908C391.685 195.426 392.076 195.035 392.558 195.035C393.041 195.035 393.432 195.426 393.432 195.908V200.47H393.955C395.06 200.47 395.955 201.365 395.955 202.47V211.864C395.955 212.969 395.06 213.864 393.955 213.864H393.432Z" fill="#2F6AAE"></path><path d="M412.261 230.267V215.902C412.261 215.42 411.87 215.029 411.387 215.029C410.905 215.029 410.514 215.42 410.514 215.902V230.267C410.514 230.749 410.905 231.141 411.387 231.141C411.87 231.141 412.261 230.749 412.261 230.267Z" fill="#2F6AAE"></path><path d="M440.602 200.761V184.649C440.602 184.167 440.211 183.776 439.729 183.776C439.246 183.776 438.855 184.167 438.855 184.649V200.761C438.855 201.244 439.246 201.635 439.729 201.635C440.211 201.635 440.602 201.244 440.602 200.761Z" fill="#2F6AAE"></path><path d="M459.431 176.885V140.197C459.431 139.714 459.04 139.323 458.558 139.323C458.075 139.323 457.684 139.714 457.684 140.197V176.885C457.684 177.367 458.075 177.758 458.558 177.758C459.04 177.758 459.431 177.367 459.431 176.885Z" fill="#2F6AAE"></path><path d="M478.261 170.479V144.467C478.261 143.985 477.87 143.594 477.387 143.594C476.905 143.594 476.514 143.985 476.514 144.467V170.479C476.514 170.961 476.905 171.352 477.387 171.352C477.87 171.352 478.261 170.961 478.261 170.479Z" fill="#2F6AAE"></path><path d="M497.09 170.479V160.385C497.09 159.902 496.699 159.511 496.217 159.511C495.734 159.511 495.343 159.902 495.343 160.385V170.479C495.343 170.961 495.734 171.352 496.217 171.352C496.699 171.352 497.09 170.961 497.09 170.479Z" fill="#2F6AAE"></path><path d="M506.408 185.232V182.708C506.408 182.226 506.017 181.835 505.534 181.835C505.052 181.835 504.661 182.226 504.661 182.708V185.232C504.661 185.714 505.052 186.105 505.534 186.105C506.017 186.105 506.408 185.714 506.408 185.232Z" fill="#2F6AAE"></path><path d="M342.945 296.432H292.043C287.14 296.432 283.165 300.407 283.165 305.31C283.165 310.214 287.14 314.189 292.043 314.189H342.945C347.848 314.189 351.823 310.214 351.823 305.31C351.823 300.407 347.848 296.432 342.945 296.432Z" fill="#2F6AAE"></path><path opacity="0.6" d="M292.491 244.593C292.491 243.489 291.595 242.593 290.491 242.593H289.967V237.546C289.967 237.01 289.533 236.576 288.997 236.576C288.461 236.576 288.026 237.01 288.026 237.546V242.593H287.503C286.398 242.593 285.503 243.489 285.503 244.593V256.899C285.503 258.004 286.398 258.899 287.503 258.899H288.026V273.846C288.026 274.382 288.461 274.817 288.997 274.817C289.533 274.817 289.967 274.382 289.967 273.846V258.899H290.491C291.595 258.899 292.491 258.004 292.491 256.899V244.593Z" fill="#FF4747"></path><path opacity="0.6" d="M320.832 202.47C320.832 201.365 319.936 200.47 318.832 200.47H318.114V177.467C318.114 176.985 317.723 176.594 317.241 176.594C316.758 176.594 316.367 176.985 316.367 177.467V200.47H315.649C314.545 200.47 313.649 201.365 313.649 202.47V220.794C313.649 221.898 314.545 222.794 315.649 222.794H316.367V227.355C316.367 227.838 316.758 228.229 317.241 228.229C317.723 228.229 318.114 227.838 318.114 227.355V222.794H318.832C319.936 222.794 320.832 221.898 320.832 220.794V202.47Z" fill="#FF4747"></path><path opacity="0.6" d="M339.079 219.493H336.75V216.776H335.003V219.493H332.673V233.276H335.003V241.235H336.75V233.276H339.079V219.493Z" fill="#FF4747"></path><g opacity="0.6"><path opacity="0.78" d="M351.309 229.005H354.026V235.411H355.773V229.005H358.491V222.793H351.309V229.005Z" fill="#2E3049"></path><path opacity="0.78" d="M374.603 202.605V187.658H372.855V202.605H370.138V208.623H377.32V202.605H374.603Z" fill="#2E3049"></path><path d="M365.285 205.711C365.285 205.175 364.851 204.74 364.315 204.74C363.779 204.74 363.344 205.175 363.344 205.711V208.04H360.821V229.976H363.344V233.276H365.285V229.976H367.809V208.04H365.285V205.711Z" fill="#FF4747"></path></g><g opacity="0.6"><path d="M398.479 227.646H401.002V233.276H402.944V227.646H405.467V211.341H398.479V227.646Z" fill="#FF4747"></path><path d="M490.296 160.511C490.296 159.959 489.849 159.511 489.296 159.511H487.579V159.026C487.579 158.544 487.188 158.153 486.705 158.153C486.223 158.153 485.832 158.544 485.832 159.026V159.511H484.308C483.756 159.511 483.308 159.959 483.308 160.511V168.023C483.308 168.575 483.756 169.023 484.308 169.023H485.832V180.961C485.832 181.444 486.223 181.835 486.705 181.835C487.188 181.835 487.579 181.444 487.579 180.961V169.023H489.296C489.849 169.023 490.296 168.575 490.296 168.023V160.511Z" fill="#FF4747"></path><path d="M421.773 211.341H420.026V212.505H417.308V228.811H420.026V236.382H421.773V228.811H424.296V212.505H421.773V211.341Z" fill="#FF4747"></path><path d="M431.09 187.173C431.09 186.69 430.699 186.299 430.217 186.299C429.734 186.299 429.343 186.69 429.343 187.173V190.182H428.82C427.715 190.182 426.82 191.077 426.82 192.182V218.658C426.82 219.763 427.715 220.658 428.82 220.658H431.808C432.913 220.658 433.808 219.763 433.808 218.658V192.182C433.808 191.077 432.913 190.182 431.808 190.182H431.09V187.173Z" fill="#FF4747"></path><path d="M449.92 176.691C449.92 176.208 449.529 175.817 449.047 175.817C448.564 175.817 448.173 176.208 448.173 176.691V178.923H447.65C446.545 178.923 445.65 179.819 445.65 180.923V185.659C445.65 186.763 446.545 187.659 447.65 187.659H450.638C451.742 187.659 452.638 186.763 452.638 185.659V180.923C452.638 179.819 451.742 178.923 450.638 178.923H449.92V176.691Z" fill="#FF4747"></path><path opacity="0.78" d="M468.75 164.073C468.75 163.591 468.358 163.2 467.876 163.2C467.394 163.2 467.003 163.591 467.003 164.073V165.917H465.479C464.927 165.917 464.479 166.365 464.479 166.917V181.029C464.479 181.581 464.927 182.029 465.479 182.029H467.003V189.891C467.003 190.373 467.394 190.764 467.876 190.764C468.358 190.764 468.75 190.373 468.75 189.891V182.029H470.467C471.02 182.029 471.467 181.581 471.467 181.029V166.917C471.467 166.365 471.02 165.917 470.467 165.917H468.75V164.073Z" fill="#FF4747"></path></g><path d="M421.073 296.432H370.171C365.268 296.432 361.293 300.407 361.293 305.31C361.293 310.214 365.268 314.189 370.171 314.189H421.073C425.976 314.189 429.951 310.214 429.951 305.31C429.951 300.407 425.976 296.432 421.073 296.432Z" fill="url(#paint1_linear_207_1085)"></path><g clip-path="url(#clip0_207_1085)"><path d="M265.105 85.9024C283.252 85.9024 297.963 71.1915 297.963 53.0447C297.963 34.8979 283.252 20.187 265.105 20.187C246.958 20.187 232.247 34.8979 232.247 53.0447C232.247 71.1915 246.958 85.9024 265.105 85.9024Z" fill="#0057A8"></path><path d="M271.443 36.624H256.5L255.264 43.5385L268.74 43.5591C275.375 43.5591 277.345 45.9679 277.281 49.9663C277.252 52.0158 276.359 55.4823 275.981 56.5995C274.96 59.5977 272.857 63.0108 264.976 63.0005L251.878 62.9923L250.642 69.915H265.545C270.8 69.915 273.038 69.301 275.402 68.2105C280.647 65.7914 283.77 60.6101 285.025 53.8476C286.886 43.7849 284.565 36.624 271.44 36.624H271.443Z" fill="white"></path><path d="M264.708 52.6298C265.195 50.607 265.349 49.7958 265.349 49.7958H250.058C246.148 49.7958 245.589 52.3422 245.218 53.8825C244.731 55.897 244.577 56.7185 244.577 56.7185H259.87C263.778 56.7185 264.337 54.172 264.708 52.6298Z" fill="white"></path></g><path d="M110.656 162.395H246.543" stroke="#2F6AAE" stroke-width="2" stroke-miterlimit="10" stroke-linecap="round"></path><path d="M110.656 170.888H246.543" stroke="#2F6AAE" stroke-width="2" stroke-miterlimit="10" stroke-linecap="round"></path><circle cx="86.0261" cy="166.642" r="10.0408" stroke="#2F6AAE" stroke-width="2"></circle><g opacity="0.8"><path d="M110.656 198.065H246.543" stroke="#2F6AAE" stroke-width="2" stroke-miterlimit="10" stroke-linecap="round"></path><path d="M110.656 206.558H246.543" stroke="#2F6AAE" stroke-width="2" stroke-miterlimit="10" stroke-linecap="round"></path><circle cx="86.0261" cy="202.312" r="10.0408" stroke="#2F6AAE" stroke-width="2"></circle></g><g opacity="0.6"><path d="M110.656 233.736H246.543" stroke="#2F6AAE" stroke-width="2" stroke-miterlimit="10" stroke-linecap="round"></path><path d="M110.656 242.229H246.543" stroke="#2F6AAE" stroke-width="2" stroke-miterlimit="10" stroke-linecap="round"></path><circle cx="86.0261" cy="237.982" r="10.0408" stroke="#2F6AAE" stroke-width="2"></circle></g><g opacity="0.4"><path d="M110.656 269.407H246.543" stroke="#2F6AAE" stroke-width="2" stroke-miterlimit="10" stroke-linecap="round"></path><path d="M110.656 277.899H246.543" stroke="#2F6AAE" stroke-width="2" stroke-miterlimit="10" stroke-linecap="round"></path><circle cx="86.0261" cy="273.653" r="10.0408" stroke="#2F6AAE" stroke-width="2"></circle></g><g opacity="0.2"><path d="M110.656 305.077H246.543" stroke="#2F6AAE" stroke-width="2" stroke-miterlimit="10" stroke-linecap="round"></path><path d="M110.656 313.57H246.543" stroke="#2F6AAE" stroke-width="2" stroke-miterlimit="10" stroke-linecap="round"></path><circle cx="86.0261" cy="309.323" r="10.0408" stroke="#2F6AAE" stroke-width="2"></circle></g><g clip-path="url(#clip1_207_1085)"><path d="M31.6712 286.392C49.0262 286.392 63.0951 272.323 63.0951 254.968C63.0951 237.613 49.0262 223.544 31.6712 223.544C14.3162 223.544 0.247253 237.613 0.247253 254.968C0.247253 272.323 14.3162 286.392 31.6712 286.392Z" fill="#3D65FF"></path><path d="M32.6493 231.4V248.821L47.3734 255.4L32.6493 231.4Z" fill="white" fill-opacity="0.602"></path><path d="M32.6492 231.4L17.9232 255.4L32.6492 248.821V231.4Z" fill="white"></path><path d="M32.6493 266.689V278.526L47.3832 258.142L32.6493 266.689Z" fill="white" fill-opacity="0.602"></path><path d="M32.6492 278.526V266.687L17.9232 258.142L32.6492 278.526Z" fill="white"></path><path d="M32.6493 263.949L47.3734 255.4L32.6493 248.825V263.949Z" fill="white" fill-opacity="0.2"></path><path d="M17.9232 255.4L32.6492 263.949V248.825L17.9232 255.4Z" fill="white" fill-opacity="0.602"></path></g><g opacity="0.2" filter="url(#filter0_d_207_1085)"><rect x="134" y="91" width="113" height="9" rx="4.5" fill="#2E3049"></rect></g><line x1="347.214" y1="93.9975" x2="368.388" y2="93.9975" stroke="#2F6AAE" stroke-width="4.30475" stroke-linecap="round" stroke-linejoin="round"></line><line x1="384.583" y1="93.9975" x2="405.757" y2="93.9975" stroke="#2F6AAE" stroke-width="4.30475" stroke-linecap="round" stroke-linejoin="round"></line><line x1="421.952" y1="93.9975" x2="443.126" y2="93.9975" stroke="#2F6AAE" stroke-width="4.30475" stroke-linecap="round" stroke-linejoin="round"></line><line x1="459.321" y1="93.9975" x2="480.495" y2="93.9975" stroke="#2F6AAE" stroke-width="4.30475" stroke-linecap="round" stroke-linejoin="round"></line><line x1="496.69" y1="93.9975" x2="517.864" y2="93.9975" stroke="#2F6AAE" stroke-width="4.30475" stroke-linecap="round" stroke-linejoin="round"></line><path d="M509.989 404.671C528.072 404.671 542.731 390.012 542.731 371.929C542.731 353.846 528.072 339.187 509.989 339.187C491.906 339.187 477.247 353.846 477.247 371.929C477.247 390.012 491.906 404.671 509.989 404.671Z" fill="#F7931A"></path><path d="M524.701 367.877C525.344 363.588 522.076 361.282 517.611 359.743L519.059 353.931L515.523 353.051L514.111 358.709C513.182 358.476 512.229 358.259 511.277 358.042L512.699 352.347L509.163 351.465L507.714 357.275C506.945 357.099 506.188 356.927 505.455 356.743L505.459 356.724L500.581 355.507L499.639 359.284C499.639 359.284 502.265 359.886 502.21 359.923C503.642 360.281 503.9 361.228 503.857 361.981L502.208 368.601C502.306 368.626 502.433 368.663 502.576 368.718L502.201 368.626L499.889 377.9C499.713 378.334 499.269 378.987 498.266 378.739C498.303 378.79 495.696 378.099 495.696 378.099L493.94 382.146L498.545 383.294C499.4 383.509 500.239 383.734 501.064 383.945L499.6 389.822L503.135 390.702L504.583 384.891C505.549 385.15 506.487 385.392 507.403 385.621L505.959 391.408L509.495 392.288L510.958 386.423C516.991 387.565 521.525 387.105 523.435 381.649C524.973 377.258 523.359 374.722 520.185 373.071C522.497 372.539 524.237 371.018 524.701 367.877ZM516.618 379.21C515.527 383.603 508.13 381.228 505.731 380.632L507.675 372.846C510.074 373.445 517.762 374.63 516.618 379.21ZM517.713 367.814C516.716 371.81 510.561 369.778 508.566 369.281L510.326 362.221C512.321 362.718 518.753 363.645 517.713 367.814Z" fill="white"></path><path d="M487.247 14.9461C487.247 6.7949 493.855 0.187012 502.006 0.187012H620.994C629.145 0.187012 635.753 6.7949 635.753 14.9461V291.893C635.753 300.044 629.145 306.652 620.994 306.652H502.006C493.855 306.652 487.247 300.044 487.247 291.893V14.9461Z" fill="#282E37"></path><rect x="501" y="278" width="54" height="15" rx="7.5" fill="#0060B8"></rect><rect x="567" y="278" width="54" height="15" rx="7.5" fill="#5FCFFF"></rect><g opacity="0.8"><path fill-rule="evenodd" clip-rule="evenodd" d="M519.188 190.326C519.188 189.844 519.579 189.453 520.061 189.453C520.544 189.453 520.935 189.844 520.935 190.326V199.644C520.935 200.341 521.5 200.906 522.197 200.906C522.893 200.906 523.458 201.47 523.458 202.167V221.191C523.458 221.888 522.893 222.453 522.197 222.453C521.5 222.453 520.935 223.018 520.935 223.714V226.82C520.935 227.303 520.544 227.694 520.061 227.694C519.579 227.694 519.188 227.303 519.188 226.82V223.811C519.188 223.061 518.579 222.453 517.829 222.453C517.079 222.453 516.47 221.844 516.47 221.094V202.264C516.47 201.514 517.079 200.906 517.829 200.906C518.579 200.906 519.188 200.297 519.188 199.547V190.326Z" fill="#8CDCFF"></path><path fill-rule="evenodd" clip-rule="evenodd" d="M525.982 197.859C525.982 196.754 526.877 195.859 527.982 195.859H530.97C532.074 195.859 532.97 196.754 532.97 197.859V202.847C532.97 203.597 532.361 204.206 531.611 204.206C530.86 204.206 530.252 204.814 530.252 205.565V210.903C530.252 211.385 529.861 211.776 529.378 211.776C528.896 211.776 528.505 211.385 528.505 210.903V205.467C528.505 204.771 527.94 204.206 527.243 204.206C526.546 204.206 525.982 203.641 525.982 202.944V197.859Z" fill="#8CDCFF"></path><path fill-rule="evenodd" clip-rule="evenodd" d="M547.335 192.85C547.335 192.367 547.726 191.976 548.208 191.976C548.691 191.976 549.082 192.367 549.082 192.85V193.335C549.082 194.086 549.69 194.694 550.441 194.694C551.191 194.694 551.799 195.302 551.799 196.053V197.023C551.799 197.774 551.191 198.382 550.441 198.382C549.69 198.382 549.082 198.991 549.082 199.741V201.391C549.082 201.873 548.691 202.265 548.208 202.265C547.726 202.265 547.335 201.873 547.335 201.391V199.644C547.335 198.947 546.77 198.382 546.073 198.382C545.376 198.382 544.811 197.817 544.811 197.121V195.956C544.811 195.259 545.376 194.694 546.073 194.694C546.77 194.694 547.335 194.129 547.335 193.432V192.85Z" fill="#8CDCFF"></path><path fill-rule="evenodd" clip-rule="evenodd" d="M566.164 175.573C566.164 175.091 566.555 174.7 567.038 174.7C567.52 174.7 567.911 175.091 567.911 175.573V185.182C567.911 185.932 568.52 186.541 569.27 186.541C570.021 186.541 570.629 187.149 570.629 187.899V200.846C570.629 201.951 569.733 202.846 568.629 202.846H565.641C564.536 202.846 563.641 201.951 563.641 200.846V187.802C563.641 187.105 564.206 186.541 564.902 186.541C565.599 186.541 566.164 185.976 566.164 185.279V175.573Z" fill="#8CDCFF"></path><path d="M514.141 219.056C514.141 218.359 513.576 217.794 512.879 217.794C512.182 217.794 511.617 217.229 511.617 216.532V212.747C511.617 212.211 511.183 211.776 510.647 211.776C510.111 211.776 509.676 212.211 509.676 212.747V216.532C509.676 217.229 509.111 217.794 508.414 217.794C507.717 217.794 507.153 218.359 507.153 219.056V232.838C507.153 233.535 507.717 234.1 508.414 234.1C509.111 234.1 509.676 234.665 509.676 235.361V249.047C509.676 249.583 510.111 250.017 510.647 250.017C511.183 250.017 511.617 249.583 511.617 249.047V235.361C511.617 234.665 512.182 234.1 512.879 234.1C513.576 234.1 514.141 233.535 514.141 232.838V219.056Z" fill="#F78888"></path><path d="M542.482 177.029C542.482 176.279 541.874 175.67 541.123 175.67C540.373 175.67 539.764 175.062 539.764 174.311V162.055C539.764 161.573 539.373 161.182 538.891 161.182C538.408 161.182 538.017 161.573 538.017 162.055V174.311C538.017 175.062 537.409 175.67 536.658 175.67C535.908 175.67 535.3 176.279 535.3 177.029V196.635C535.3 197.385 535.908 197.994 536.658 197.994C537.409 197.994 538.017 198.602 538.017 199.353V202.555C538.017 203.038 538.408 203.429 538.891 203.429C539.373 203.429 539.764 203.038 539.764 202.555V199.353C539.764 198.602 540.373 197.994 541.123 197.994C541.874 197.994 542.482 197.385 542.482 196.635V177.029Z" fill="#F78888"></path><path d="M560.729 195.859C560.729 195.215 560.207 194.694 559.564 194.694C558.921 194.694 558.399 194.172 558.399 193.529V192.85C558.399 192.367 558.008 191.976 557.526 191.976C557.043 191.976 556.652 192.367 556.652 192.85V193.529C556.652 194.172 556.131 194.694 555.488 194.694C554.844 194.694 554.323 195.215 554.323 195.859V207.311C554.323 207.955 554.844 208.476 555.488 208.476C556.131 208.476 556.652 208.998 556.652 209.641V215.561C556.652 216.044 557.043 216.435 557.526 216.435C558.008 216.435 558.399 216.044 558.399 215.561V209.641C558.399 208.998 558.921 208.476 559.564 208.476C560.207 208.476 560.729 207.955 560.729 207.311V195.859Z" fill="#F78888"></path><path opacity="0.78" d="M572.958 202.846C572.958 203.597 573.566 204.205 574.317 204.205C575.067 204.205 575.676 204.814 575.676 205.564V209.737C575.676 210.22 576.067 210.611 576.549 210.611C577.032 210.611 577.423 210.22 577.423 209.737V205.564C577.423 204.814 578.031 204.205 578.782 204.205C579.532 204.205 580.14 203.597 580.14 202.846V199.993C580.14 198.889 579.245 197.993 578.14 197.993H574.958C573.853 197.993 572.958 198.889 572.958 199.993V202.846Z" fill="#F78888"></path><path opacity="0.78" d="M597.611 177.805C596.861 177.805 596.252 177.197 596.252 176.447V163.732C596.252 163.249 595.861 162.858 595.379 162.858C594.896 162.858 594.505 163.249 594.505 163.732V176.447C594.505 177.197 593.897 177.805 593.146 177.805C592.396 177.805 591.787 178.414 591.787 179.164V181.823C591.787 182.928 592.683 183.823 593.787 183.823H596.97C598.074 183.823 598.97 182.928 598.97 181.823V179.164C598.97 178.414 598.361 177.805 597.611 177.805Z" fill="#F78888"></path><path fill-rule="evenodd" clip-rule="evenodd" d="M601.032 184.411C601.032 183.306 601.927 182.411 603.032 182.411H606.02C607.124 182.411 608.02 183.306 608.02 184.411V191.34C608.02 192.091 607.412 192.699 606.661 192.699C605.911 192.699 605.302 193.307 605.302 194.058V195.902C605.302 196.384 604.911 196.775 604.429 196.775C603.946 196.775 603.555 196.384 603.555 195.902V193.961C603.555 193.264 602.99 192.699 602.293 192.699C601.597 192.699 601.032 192.134 601.032 191.437V184.411Z" fill="#8CDCFF"></path><path fill-rule="evenodd" clip-rule="evenodd" d="M613.067 171.443C613.067 170.96 613.458 170.569 613.94 170.569C614.423 170.569 614.814 170.96 614.814 171.443V174.743C614.814 175.44 615.379 176.005 616.076 176.005C616.773 176.005 617.337 176.57 617.337 177.266V188.137C617.337 188.834 616.773 189.399 616.076 189.399H615.881C615.292 189.399 614.814 189.877 614.814 190.466V190.66C614.814 191.143 614.423 191.534 613.94 191.534C613.458 191.534 613.067 191.143 613.067 190.66V190.466C613.067 189.877 612.589 189.399 611.999 189.399H611.708C610.958 189.399 610.349 188.79 610.349 188.04V177.363C610.349 176.613 610.958 176.005 611.708 176.005C612.458 176.005 613.067 175.396 613.067 174.646V171.443Z" fill="#8CDCFF"></path><path opacity="0.78" d="M586.935 180.911C586.935 180.375 586.5 179.94 585.964 179.94C585.428 179.94 584.994 180.375 584.994 180.911V181.979C584.994 182.676 584.429 183.24 583.732 183.24C583.035 183.24 582.47 183.805 582.47 184.502V203.914C582.47 204.611 583.035 205.176 583.732 205.176C584.429 205.176 584.994 205.741 584.994 206.437V207.505C584.994 208.041 585.428 208.476 585.964 208.476C586.5 208.476 586.935 208.041 586.935 207.505V206.437C586.935 205.741 587.5 205.176 588.197 205.176C588.894 205.176 589.458 204.611 589.458 203.914V184.502C589.458 183.805 588.894 183.24 588.197 183.24C587.5 183.24 586.935 182.676 586.935 181.979V180.911Z" fill="#F78888"></path></g><rect x="500.35" y="78.7902" width="26.8915" height="26.8915" rx="6.3477" fill="#5FCFFF"></rect><path d="M517.709 93.6034C517.709 94.2863 517.623 94.8246 517.449 95.2181C517.275 95.6001 516.986 95.8837 516.581 96.0689C516.176 96.2425 515.609 96.3583 514.879 96.4161V97.7531H513.508V96.4335C512.443 96.3872 511.563 96.3004 510.869 96.1731V94.593L511.389 94.6278C512.42 94.6972 513.126 94.7377 513.508 94.7493V92.4401L512.587 92.3185C511.8 92.2143 511.268 91.9481 510.99 91.5198C510.712 91.08 510.573 90.4491 510.573 89.6273C510.573 88.7013 510.811 88.0357 511.285 87.6306C511.771 87.2254 512.512 86.9881 513.508 86.9187V85.5297H514.879V86.9013C515.736 86.9129 516.517 86.9997 517.223 87.1618V88.7418C516.633 88.6723 515.852 88.6145 514.879 88.5682V90.808L515.869 90.9295C516.32 90.9874 516.673 91.0973 516.928 91.2594C517.194 91.4214 517.391 91.6877 517.518 92.0581C517.646 92.4169 517.709 92.932 517.709 93.6034ZM513.508 90.6517V88.5855C513.114 88.6202 512.831 88.7128 512.657 88.8633C512.495 89.0022 512.414 89.2511 512.414 89.6099C512.414 89.9109 512.437 90.125 512.483 90.2523C512.53 90.3797 512.611 90.4665 512.726 90.5128C512.842 90.5591 513.056 90.5996 513.369 90.6343L513.508 90.6517ZM514.879 94.7146C515.308 94.6683 515.58 94.5699 515.695 94.4194C515.823 94.2689 515.886 94.0143 515.886 93.6555C515.886 93.3429 515.857 93.123 515.8 92.9957C515.753 92.8683 515.666 92.7815 515.539 92.7352C515.423 92.6889 515.203 92.6484 514.879 92.6137V94.7146Z" fill="#0060B8"></path><rect x="547.01" y="78.7902" width="26.8915" height="26.8915" rx="6.3477" fill="#0060B8"></rect><path d="M561.985 97.1253C560.86 97.1253 560.006 97.0212 559.423 96.8128C558.839 96.6045 558.417 96.2346 558.157 95.7033C557.954 95.2887 557.811 94.7186 557.728 93.9931C557.687 93.6293 557.387 93.3437 557.021 93.3437H556.868C556.57 93.3437 556.329 93.1024 556.329 92.8046C556.329 92.5069 556.57 92.2655 556.868 92.2655H556.977C557.335 92.2655 557.626 91.9752 557.626 91.617V91.6014C557.626 91.2432 557.335 90.9529 556.977 90.9529H556.868C556.57 90.9529 556.329 90.7115 556.329 90.4138C556.329 90.116 556.57 89.8746 556.868 89.8746H557.022C557.388 89.8746 557.687 89.5898 557.732 89.2268C557.816 88.5557 557.957 88.0163 558.157 87.6088C558.428 87.0775 558.86 86.6972 559.454 86.4681C560.048 86.2389 560.892 86.1243 561.985 86.1243C562.84 86.1243 563.475 86.1711 563.892 86.2649C564.254 86.3356 564.548 86.6891 564.548 87.0581V87.0786C564.548 87.4929 564.184 87.8205 563.771 87.7901C563.729 87.787 563.686 87.7839 563.642 87.7807C563.204 87.739 562.803 87.7182 562.439 87.7182C561.595 87.7182 560.98 87.7651 560.595 87.8588C560.209 87.9422 559.928 88.1349 559.751 88.437C559.352 89.1344 560.117 89.8746 560.921 89.8746H563.243C563.541 89.8746 563.782 90.116 563.782 90.4138C563.782 90.7115 563.541 90.9529 563.243 90.9529H560.079C559.717 90.9529 559.423 91.2467 559.423 91.6092C559.423 91.9717 559.717 92.2655 560.079 92.2655H563.243C563.541 92.2655 563.782 92.5069 563.782 92.8046C563.782 93.1024 563.541 93.3437 563.243 93.3437H560.951C560.131 93.3437 559.355 94.0948 559.751 94.8126C559.928 95.1147 560.209 95.3127 560.595 95.4064C560.98 95.4898 561.595 95.5314 562.439 95.5314C562.918 95.5314 563.366 95.5158 563.782 95.4846C564.219 95.4409 564.611 95.7861 564.611 96.2244V96.2686C564.611 96.6368 564.345 96.9529 563.979 96.9991C563.315 97.0833 562.65 97.1253 561.985 97.1253Z" fill="#FBFBFB"></path><rect x="593.67" y="78.7902" width="26.8915" height="26.8915" rx="6.3477" fill="#0060B8"></rect><path d="M610.545 96.1409C610.991 96.1409 611.351 96.5018 611.351 96.947C611.351 97.3922 610.991 97.7532 610.545 97.7532H604.254C603.809 97.7532 603.448 97.3922 603.448 96.947V96.7258C603.448 96.4028 603.71 96.1409 604.033 96.1409C604.356 96.1409 604.618 95.8791 604.618 95.5561V93.5329C604.618 93.2099 604.356 92.9481 604.033 92.9481C603.71 92.9481 603.448 92.6862 603.448 92.3633V91.9602C603.448 91.6328 603.714 91.3675 604.041 91.3675C604.368 91.3675 604.632 91.1018 604.643 90.7746C604.674 89.8297 604.781 89.0894 604.966 88.554C605.198 87.9112 605.603 87.4528 606.183 87.1788C606.762 86.8943 607.621 86.7521 608.759 86.7521C609.17 86.7521 609.602 86.7784 610.055 86.8311C610.238 86.8481 610.407 86.8677 610.562 86.8898C610.918 86.9406 611.162 87.2561 611.162 87.6156C611.162 88.0892 610.748 88.4538 610.276 88.4139C609.884 88.3808 609.542 88.3643 609.249 88.3643C608.701 88.3643 608.259 88.3906 607.922 88.4433C607.595 88.4855 607.331 88.5751 607.131 88.712C606.857 88.8806 606.668 89.1704 606.562 89.5814C606.336 90.537 607.216 91.3675 608.198 91.3675H609.186C609.622 91.3675 609.976 91.7213 609.976 92.1578C609.976 92.5943 609.622 92.9481 609.186 92.9481H608.016C607.135 92.9481 606.42 93.6628 606.42 94.5445C606.42 95.4262 607.135 96.1409 608.016 96.1409H610.545Z" fill="#FBFBFB"></path><line x1="500.888" y1="134.086" x2="618.48" y2="134.086" stroke="#5FCFFF" stroke-width="1.32177" stroke-linecap="round" stroke-linejoin="round"></line><line x1="500.888" y1="127.828" x2="618.48" y2="127.828" stroke="#5FCFFF" stroke-width="1.32177" stroke-linecap="round" stroke-linejoin="round"></line><line x1="500.888" y1="140.345" x2="552.765" y2="140.345" stroke="#5FCFFF" stroke-width="1.32177" stroke-linecap="round" stroke-linejoin="round"></line><path d="M575.432 34.6411L566.648 40.3738C566.104 40.7288 565.401 40.7288 564.857 40.3738L556.073 34.6411C554.217 33.4297 551.753 34.7558 551.753 36.9661V51.3737C551.753 52.2724 552.484 53.0009 553.387 53.0009H556.835C557.154 53.0009 557.465 53.0935 557.731 53.2667L564.858 57.916C565.401 58.2704 566.104 58.2704 566.648 57.916L573.775 53.2667C574.041 53.093 574.352 53.0009 574.67 53.0009H578.119C579.021 53.0009 579.753 52.2724 579.753 51.3737V36.9661C579.753 34.7558 577.288 33.4297 575.432 34.6411ZM574.182 45.2918C574.182 45.8402 573.905 46.3515 573.445 46.6526L566.648 51.0911C566.104 51.4467 565.401 51.4467 564.857 51.0911L558.06 46.6526C557.6 46.3521 557.323 45.8402 557.323 45.2918C557.323 43.9976 558.766 43.2217 559.852 43.931L564.857 47.1998C565.401 47.5554 566.104 47.5554 566.648 47.1998L571.653 43.931C572.739 43.2217 574.182 43.9976 574.182 45.2918Z" fill="url(#paint2_linear_207_1085)"></path><path d="M98.9268 84.4594L90.1423 90.1921C89.5987 90.547 88.8952 90.547 88.3516 90.1921L79.5677 84.4594C77.7118 83.248 75.2473 84.574 75.2473 86.7843V101.192C75.2473 102.091 75.9787 102.819 76.881 102.819H80.3299C80.6479 102.819 80.959 102.912 81.2253 103.085L88.3522 107.734C88.8958 108.089 89.5987 108.089 90.1423 107.734L97.2692 103.085C97.5355 102.911 97.8466 102.819 98.1646 102.819H101.613C102.516 102.819 103.247 102.091 103.247 101.192V86.7843C103.247 84.574 100.783 83.248 98.9268 84.4594ZM97.6768 95.1101C97.6768 95.6584 97.3995 96.1697 96.939 96.4709L90.1429 100.909C89.5987 101.265 88.8952 101.265 88.351 100.909L81.5549 96.4709C81.0945 96.1703 80.8171 95.6584 80.8171 95.1101C80.8171 93.8159 82.2602 93.0399 83.3468 93.7493L88.351 97.0181C88.8952 97.3736 89.5987 97.3736 90.1429 97.0181L95.1471 93.7493C96.2337 93.0399 97.6768 93.8159 97.6768 95.1101Z" fill="url(#paint3_linear_207_1085)"></path><defs><filter id="filter0_d_207_1085" x="99.562" y="56.562" width="181.876" height="77.876" color-interpolation-filters="sRGB"><feFlood flood-opacity="0" result="BackgroundImageFix"></feFlood><feColorMatrix in="SourceAlpha" type="matrix" values="0 0 0 0 0 0 0 0 0 0 0 0 0 0 0 0 0 0 127 0" result="hardAlpha"></feColorMatrix><feOffset></feOffset><feGaussianBlur stdDeviation="17.219"></feGaussianBlur><feColorMatrix type="matrix" values="0 0 0 0 0.501823 0 0 0 0 0.672724 0 0 0 0 0.979167 0 0 0 0.32 0"></feColorMatrix><feBlend mode="normal" in2="BackgroundImageFix" result="effect1_dropShadow_207_1085"></feBlend><feBlend mode="normal" in="SourceGraphic" in2="effect1_dropShadow_207_1085" result="shape"></feBlend></filter><linearGradient id="paint0_linear_207_1085" x1="588.181" y1="396.422" x2="45.2646" y2="365.799" gradientUnits="userSpaceOnUse"><stop stop-color="#131C27"></stop><stop offset="1" stop-color="#030407"></stop></linearGradient><linearGradient id="paint1_linear_207_1085" x1="361.293" y1="305.31" x2="416.118" y2="334.081" gradientUnits="userSpaceOnUse"><stop stop-color="#0AF6A1"></stop><stop offset="0.338535" stop-color="#1FC7D1"></stop><stop offset="0.677091" stop-color="#5F7DA1"></stop><stop offset="1" stop-color="#C172FF"></stop></linearGradient><linearGradient id="paint2_linear_207_1085" x1="551.753" y1="46.1818" x2="579.571" y2="50.5863" gradientUnits="userSpaceOnUse"><stop stop-color="#0AF6A1"></stop><stop offset="0.338535" stop-color="#1FC7D1"></stop><stop offset="0.677091" stop-color="#5F7DA1"></stop><stop offset="1" stop-color="#C172FF"></stop></linearGradient><linearGradient id="paint3_linear_207_1085" x1="75.2473" y1="96.0001" x2="103.247" y2="96.0001" gradientUnits="userSpaceOnUse"><stop stop-color="#0AF6A1"></stop><stop offset="0.34" stop-color="#1FC7D1"></stop><stop offset="0.68" stop-color="#5F7DA1"></stop><stop offset="1" stop-color="#C172FF"></stop></linearGradient><clipPath id="clip0_207_1085"><rect width="65.7154" height="65.7154" fill="white" transform="translate(232.247 20.187)"></rect></clipPath><clipPath id="clip1_207_1085"><rect width="62.8479" height="62.8479" fill="white" transform="translate(0.247253 223.544)"></rect></clipPath></defs></svg> 