<?xml version="1.0" encoding="UTF-8"?> <svg xmlns="http://www.w3.org/2000/svg" width="201" height="40" viewBox="0 0 201 40" fill="none"><path d="M36.8473 1.18095L23.5272 10.5292C22.7029 11.108 21.6362 11.108 20.8119 10.5292L7.49261 1.18095C4.67854 -0.794454 0.941429 1.36792 0.941429 4.97218V28.4665C0.941429 29.932 2.05048 31.1198 3.41873 31.1198H8.64839C9.13063 31.1198 9.60229 31.2709 10.0061 31.5533L20.8127 39.1348C21.637 39.7127 22.7029 39.7127 23.5272 39.1348L34.3339 31.5533C34.7376 31.27 35.2093 31.1198 35.6915 31.1198H40.9212C42.2894 31.1198 43.3985 29.932 43.3985 28.4665V4.97218C43.3985 1.36792 39.6614 -0.794454 36.8473 1.18095ZM34.9519 18.5488C34.9519 19.4431 34.5313 20.2768 33.8331 20.7679L23.5281 28.0057C22.7029 28.5854 21.6362 28.5854 20.811 28.0057L10.5059 20.7679C9.8077 20.2778 9.38718 19.4431 9.38718 18.5488C9.38718 16.4384 11.5753 15.1731 13.223 16.3298L20.811 21.6602C21.6362 22.24 22.7029 22.24 23.5281 21.6602L31.116 16.3298C32.7637 15.1731 34.9519 16.4384 34.9519 18.5488Z" fill="url(#paint0_linear_557_1636)"></path><path d="M59.1079 28.743C58.948 28.6066 58.8386 28.4313 58.7778 28.2213L54.1868 12.6705L54.1422 12.4519C54.1422 12.322 54.1908 12.2051 54.2901 12.099C54.3893 11.9929 54.5068 11.941 54.6424 11.941H57.6194C57.8463 11.941 58.0326 12.0102 58.1764 12.1466C58.3201 12.2852 58.4153 12.4346 58.4599 12.5969L61.5503 23.5797L64.665 12.5969C64.7096 12.4194 64.8047 12.2657 64.9485 12.1358C65.0923 12.0059 65.2786 11.941 65.5054 11.941H68.4824C68.6181 11.941 68.7315 11.9929 68.8227 12.099C68.9138 12.2051 68.9584 12.322 68.9584 12.4519C68.9584 12.5342 68.9503 12.6056 68.9361 12.6705L64.3227 28.2213C64.2782 28.4313 64.1749 28.6066 64.0169 28.743C63.857 28.8816 63.6484 28.9487 63.3912 28.9487H59.7317C59.4745 28.9487 59.2659 28.8794 59.1059 28.743H59.1079Z" fill="#FBFBFB"></path><path d="M70.5663 14.383C70.461 14.2617 70.4063 14.1124 70.4063 13.9327V11.6746C70.4063 11.4971 70.463 11.3456 70.5765 11.2243C70.6899 11.1031 70.8235 11.0425 70.9734 11.0425H73.8147C73.9808 11.0425 74.1205 11.1031 74.2359 11.2243C74.3514 11.3456 74.4061 11.495 74.4061 11.6746V13.9348C74.4061 14.1124 74.3493 14.2617 74.2359 14.3851C74.1225 14.5064 73.9828 14.567 73.8147 14.567H70.9734C70.8073 14.567 70.6696 14.5064 70.5643 14.3851L70.5663 14.383ZM70.5785 28.7668C70.4651 28.6456 70.4084 28.5048 70.4084 28.3425V16.9224C70.4084 16.7449 70.4651 16.5977 70.5785 16.4851C70.6919 16.3726 70.8256 16.3141 70.9754 16.3141H73.8167C73.9828 16.3141 74.1225 16.3704 74.238 16.4851C74.3514 16.5977 74.4081 16.7449 74.4081 16.9224V28.3425C74.4081 28.52 74.3514 28.6672 74.238 28.7798C74.1246 28.8924 73.9848 28.9508 73.8167 28.9508H70.9754C70.8235 28.9508 70.6919 28.8902 70.5785 28.769V28.7668Z" fill="#FBFBFB"></path><path d="M78.0595 19.6199H76.2631C76.1112 19.6199 75.9796 19.5593 75.8662 19.4381C75.7528 19.3168 75.6961 19.1761 75.6961 19.0137V16.9246C75.6961 16.747 75.7528 16.5998 75.8662 16.4873C75.9796 16.3747 76.1112 16.3162 76.2631 16.3162H78.0595V12.3068C78.0595 12.1292 78.1162 11.982 78.2296 11.8694C78.343 11.7569 78.4746 11.6984 78.6265 11.6984H81.4212C81.5873 11.6984 81.725 11.7547 81.8303 11.8694C81.9356 11.982 81.9903 12.1292 81.9903 12.3068V16.3162H84.8316C84.9977 16.3162 85.1394 16.3725 85.2529 16.4873C85.3663 16.5998 85.423 16.747 85.423 16.9246V19.0137C85.423 19.1913 85.3663 19.3385 85.2529 19.451C85.1394 19.5636 84.9997 19.6221 84.8316 19.6221H81.9903V23.7528C81.9903 24.32 82.0895 24.7486 82.286 25.0409C82.4824 25.3332 82.8004 25.4782 83.2398 25.4782H85.0362C85.2022 25.4782 85.3399 25.5388 85.4452 25.6601C85.5506 25.7813 85.6052 25.9307 85.6052 26.1104V28.3468C85.6052 28.5091 85.5526 28.6499 85.4452 28.7711C85.3399 28.8923 85.2022 28.9529 85.0362 28.9529H82.8773C79.6654 28.9529 78.0595 27.3422 78.0595 24.1186V19.6199Z" fill="#FBFBFB"></path><path d="M88.7706 28.6932C88.1124 28.3619 87.596 27.903 87.2254 27.3206C86.8548 26.7382 86.6684 26.0974 86.6684 25.4003C86.6684 24.2984 87.0958 23.4042 87.9524 22.7158C88.8091 22.0273 89.9857 21.5532 91.4863 21.2934L94.3054 20.8323V20.54C94.3054 19.9403 94.192 19.503 93.9651 19.2281C93.7383 18.9531 93.3515 18.8146 92.8067 18.8146C92.503 18.8146 92.2498 18.8709 92.0453 18.9856C91.8407 19.0982 91.6099 19.2692 91.3527 19.4965C91.1562 19.6741 90.9821 19.8039 90.8302 19.884C90.7694 19.9966 90.6945 20.0551 90.6034 20.0551H87.9666C87.8147 20.0551 87.6891 20.0031 87.5919 19.897C87.4927 19.791 87.4522 19.6654 87.4664 19.5203C87.4805 19.083 87.6851 18.5937 88.08 18.0503C88.4749 17.5069 89.0723 17.0415 89.8763 16.654C90.6783 16.2643 91.6726 16.0716 92.8533 16.0716C94.7327 16.0716 96.126 16.5132 97.0353 17.3965C97.9446 18.2798 98.3982 19.4749 98.3982 20.9795V28.3403C98.3982 28.5027 98.3456 28.6434 98.2382 28.7646C98.1329 28.8859 97.9952 28.9465 97.8292 28.9465H95.0344C94.8825 28.9465 94.7509 28.8859 94.6375 28.7646C94.5241 28.6434 94.4674 28.5027 94.4674 28.3403V27.4895C94.1332 27.9917 93.6715 28.4009 93.0801 28.717C92.4888 29.0331 91.784 29.1911 90.9659 29.1911C90.1477 29.1911 89.4308 29.0244 88.7726 28.6932H88.7706ZM93.7262 25.619C94.1433 25.1492 94.3519 24.4694 94.3519 23.5774V23.2852L92.4665 23.6251C91.1927 23.8849 90.5568 24.3698 90.5568 25.0821C90.5568 25.4544 90.7046 25.7554 91.0003 25.9805C91.296 26.2078 91.6625 26.3204 92.102 26.3204C92.7683 26.3204 93.311 26.0866 93.7262 25.6168V25.619Z" fill="#FBFBFB"></path><path d="M100.751 28.7798C100.638 28.6672 100.581 28.52 100.581 28.3424V12.3068C100.581 12.1292 100.638 11.982 100.751 11.8694C100.865 11.7569 101.005 11.6984 101.173 11.6984H104.014C104.18 11.6984 104.318 11.7547 104.423 11.8694C104.528 11.982 104.583 12.1292 104.583 12.3068V28.3424C104.583 28.5048 104.53 28.6455 104.423 28.7668C104.318 28.888 104.18 28.9486 104.014 28.9486H101.173C101.007 28.9486 100.867 28.8923 100.751 28.7776V28.7798Z" fill="#FBFBFB"></path><path d="M112.366 28.7798C112.252 28.6673 112.196 28.52 112.196 28.3425V12.5731C112.196 12.3956 112.252 12.2441 112.366 12.1228C112.479 12.0016 112.619 11.941 112.787 11.941H115.355C115.734 11.941 116.007 12.1185 116.173 12.4757L120.082 19.9599L124.015 12.4757C124.181 12.1207 124.454 11.941 124.833 11.941H127.401C127.567 11.941 127.708 12.0016 127.822 12.1228C127.935 12.2441 127.992 12.3934 127.992 12.5731V28.3425C127.992 28.52 127.935 28.6673 127.822 28.7798C127.708 28.8924 127.569 28.9509 127.401 28.9509H124.515C124.363 28.9509 124.231 28.8902 124.118 28.769C124.004 28.6478 123.948 28.507 123.948 28.3447V19.5009L121.493 24.3114C121.297 24.6838 121.032 24.87 120.697 24.87H119.47C119.166 24.87 118.901 24.6838 118.674 24.3114L116.242 19.5009V28.3447C116.242 28.5222 116.185 28.6694 116.072 28.782C115.958 28.8946 115.819 28.953 115.651 28.953H112.787C112.621 28.953 112.479 28.8967 112.366 28.782V28.7798Z" fill="#FBFBFB"></path><path d="M131.793 28.6932C131.135 28.3619 130.619 27.903 130.248 27.3206C129.877 26.7382 129.691 26.0974 129.691 25.4003C129.691 24.2984 130.118 23.4042 130.975 22.7158C131.832 22.0273 133.008 21.5532 134.509 21.2934L137.328 20.8323V20.54C137.328 19.9403 137.215 19.503 136.988 19.2281C136.761 18.9531 136.374 18.8146 135.829 18.8146C135.526 18.8146 135.272 18.8709 135.068 18.9856C134.863 19.0982 134.633 19.2692 134.375 19.4965C134.179 19.6741 134.005 19.8039 133.853 19.884C133.792 19.9966 133.717 20.0551 133.626 20.0551H130.989C130.837 20.0551 130.712 20.0031 130.615 19.897C130.515 19.791 130.475 19.6654 130.489 19.5203C130.503 19.083 130.708 18.5937 131.103 18.0503C131.498 17.5069 132.095 17.0415 132.899 16.654C133.701 16.2643 134.695 16.0716 135.876 16.0716C137.755 16.0716 139.149 16.5132 140.058 17.3965C140.967 18.2798 141.421 19.4749 141.421 20.9795V28.3403C141.421 28.5027 141.368 28.6434 141.261 28.7646C141.156 28.8859 141.018 28.9465 140.852 28.9465H138.057C137.905 28.9465 137.774 28.8859 137.66 28.7646C137.547 28.6434 137.49 28.5027 137.49 28.3403V27.4895C137.156 27.9917 136.694 28.4009 136.103 28.717C135.511 29.0331 134.807 29.1911 133.989 29.1911C133.17 29.1911 132.453 29.0244 131.795 28.6932H131.793ZM136.749 25.619C137.166 25.1492 137.375 24.4694 137.375 23.5774V23.2852L135.489 23.6251C134.215 23.8849 133.579 24.3698 133.579 25.0821C133.579 25.4544 133.727 25.7554 134.023 25.9805C134.319 26.2078 134.685 26.3204 135.125 26.3204C135.791 26.3204 136.334 26.0866 136.749 25.6168V25.619Z" fill="#FBFBFB"></path><path d="M143.776 28.7669C143.663 28.6456 143.606 28.5049 143.606 28.3425V16.9463C143.606 16.7688 143.659 16.6172 143.766 16.496C143.871 16.3748 144.009 16.3141 144.175 16.3141H146.948C147.114 16.3141 147.253 16.3748 147.369 16.496C147.482 16.6172 147.539 16.7666 147.539 16.9463V17.8686C147.962 17.3663 148.458 16.9809 149.027 16.7147C149.596 16.4484 150.228 16.3141 150.925 16.3141H151.948C152.114 16.3141 152.251 16.3704 152.357 16.4852C152.462 16.5978 152.517 16.745 152.517 16.9225V19.5702C152.517 19.7326 152.464 19.8733 152.357 19.9945C152.251 20.1158 152.114 20.1764 151.948 20.1764H149.653C149.048 20.1764 148.582 20.3539 148.256 20.7111C147.93 21.0683 147.768 21.5706 147.768 22.2179V28.3404C147.768 28.5179 147.711 28.6651 147.598 28.7777C147.484 28.8903 147.345 28.9487 147.176 28.9487H144.177C144.025 28.9487 143.894 28.8881 143.78 28.7669H143.776Z" fill="#FBFBFB"></path><path d="M153.953 28.7798C153.839 28.6672 153.783 28.52 153.783 28.3424V12.3068C153.783 12.1292 153.839 11.982 153.953 11.8694C154.066 11.7569 154.206 11.6984 154.374 11.6984H157.146C157.312 11.6984 157.45 11.7547 157.555 11.8694C157.661 11.982 157.715 12.1292 157.715 12.3068V20.4209L160.739 16.7276C160.769 16.6951 160.826 16.6388 160.909 16.5565C160.992 16.4764 161.079 16.4158 161.17 16.3747C161.261 16.3335 161.375 16.3141 161.511 16.3141H164.714C164.85 16.3141 164.968 16.366 165.067 16.4721C165.166 16.5782 165.215 16.7102 165.215 16.8726C165.215 17.0177 165.162 17.1476 165.055 17.2623L161.055 21.9754L165.624 28.0242C165.729 28.1692 165.784 28.2905 165.784 28.3879C165.784 28.5503 165.735 28.6845 165.636 28.7884C165.537 28.8923 165.413 28.9465 165.261 28.9465H161.966C161.77 28.9465 161.622 28.914 161.523 28.849C161.423 28.7841 161.306 28.678 161.17 28.533L157.715 23.9649V28.3381C157.715 28.5005 157.663 28.6412 157.555 28.7624C157.448 28.8837 157.312 28.9443 157.146 28.9443H154.374C154.208 28.9443 154.068 28.888 153.953 28.7733V28.7798Z" fill="#FBFBFB"></path><path d="M167.497 27.5999C166.436 26.5391 165.891 24.9955 165.861 22.9713V22.2179C165.921 20.2911 166.482 18.7843 167.542 17.6975C168.603 16.6129 170.034 16.0695 171.837 16.0695C173.139 16.0695 174.243 16.3488 175.144 16.9073C176.045 17.4659 176.72 18.2366 177.167 19.2151C177.615 20.1959 177.837 21.3086 177.837 22.5556V23.164C177.837 23.3415 177.781 23.4909 177.667 23.6143C177.554 23.7355 177.414 23.7961 177.246 23.7961H170.041V23.9412C170.055 24.6708 170.215 25.2575 170.519 25.7035C170.822 26.1494 171.254 26.3724 171.815 26.3724C172.177 26.3724 172.469 26.2966 172.689 26.1408C172.908 25.9871 173.117 25.7879 173.315 25.5454C173.451 25.383 173.562 25.2835 173.645 25.2423C173.728 25.2012 173.862 25.1817 174.042 25.1817H177.019C177.155 25.1817 177.272 25.2272 177.372 25.3159C177.471 25.4047 177.52 25.5151 177.52 25.645C177.52 26.0672 177.297 26.5608 176.849 27.128C176.402 27.6952 175.75 28.1801 174.895 28.585C174.038 28.9898 173.028 29.1933 171.861 29.1933C170.012 29.1933 168.558 28.6629 167.497 27.6021V27.5999ZM173.656 21.3195V21.2718C173.656 20.4946 173.496 19.8906 173.178 19.4619C172.86 19.0333 172.412 18.819 171.837 18.819C171.262 18.819 170.818 19.0333 170.508 19.4619C170.197 19.8906 170.043 20.4946 170.043 21.2718V21.3195H173.656Z" fill="#FBFBFB"></path><path d="M180.972 19.6199H179.176C179.024 19.6199 178.893 19.5593 178.779 19.4381C178.666 19.3168 178.609 19.1761 178.609 19.0137V16.9246C178.609 16.747 178.666 16.5998 178.779 16.4873C178.893 16.3747 179.024 16.3162 179.176 16.3162H180.972V12.3068C180.972 12.1292 181.029 11.982 181.143 11.8694C181.256 11.7569 181.388 11.6984 181.539 11.6984H184.334C184.5 11.6984 184.638 11.7547 184.743 11.8694C184.849 11.982 184.903 12.1292 184.903 12.3068V16.3162H187.745C187.911 16.3162 188.052 16.3725 188.166 16.4873C188.279 16.5998 188.336 16.747 188.336 16.9246V19.0137C188.336 19.1913 188.279 19.3385 188.166 19.451C188.052 19.5636 187.913 19.6221 187.745 19.6221H184.903V23.7528C184.903 24.32 185.003 24.7486 185.199 25.0409C185.395 25.3332 185.713 25.4782 186.153 25.4782H187.949C188.115 25.4782 188.253 25.5388 188.358 25.6601C188.464 25.7813 188.518 25.9307 188.518 26.1104V28.3468C188.518 28.5091 188.466 28.6499 188.358 28.7711C188.253 28.8923 188.115 28.9529 187.949 28.9529H185.79C182.578 28.9529 180.972 27.3422 180.972 24.1186V19.6199Z" fill="#FBFBFB"></path><path d="M192.089 28.6326C191.254 28.2602 190.637 27.8143 190.236 27.2968C189.835 26.7794 189.634 26.3096 189.634 25.8875C189.634 25.7251 189.691 25.593 189.804 25.487C189.918 25.3809 190.043 25.3289 190.179 25.3289H192.929C193.02 25.3289 193.095 25.3614 193.156 25.4263C193.413 25.6039 193.557 25.7099 193.587 25.7424C193.875 25.9697 194.144 26.1429 194.393 26.2642C194.642 26.3854 194.942 26.446 195.29 26.446C195.699 26.446 196.036 26.3616 196.301 26.1906C196.566 26.0195 196.698 25.7814 196.698 25.474C196.698 25.2142 196.625 25.0042 196.481 24.8418C196.337 24.6794 196.064 24.5214 195.663 24.3677C195.262 24.214 194.652 24.0559 193.834 23.8936C191.214 23.3264 189.901 22.0317 189.901 20.0053C189.901 19.3407 190.102 18.7064 190.503 18.098C190.904 17.4897 191.495 17.0004 192.275 16.628C193.055 16.2557 193.99 16.0695 195.082 16.0695C196.173 16.0695 197.145 16.2513 197.958 16.6151C198.768 16.9788 199.385 17.4161 199.811 17.927C200.234 18.4379 200.446 18.9034 200.446 19.3234C200.446 19.4684 200.398 19.5983 200.299 19.7131C200.199 19.8257 200.082 19.8841 199.946 19.8841H197.447C197.311 19.8841 197.204 19.8516 197.129 19.7867C196.947 19.6893 196.765 19.568 196.584 19.423C196.311 19.2281 196.072 19.0787 195.868 18.9727C195.663 18.8666 195.402 18.8146 195.084 18.8146C194.705 18.8146 194.409 18.9034 194.197 19.0809C193.984 19.2584 193.879 19.4858 193.879 19.7607C193.879 20.0032 193.944 20.2024 194.071 20.3561C194.199 20.5098 194.464 20.6592 194.867 20.8064C195.268 20.9514 195.878 21.1073 196.696 21.2675C198.18 21.5424 199.26 22.0339 199.934 22.7375C200.608 23.4411 200.945 24.2638 200.945 25.2034C200.945 26.4179 200.44 27.3856 199.434 28.1065C198.425 28.8275 197.014 29.1868 195.195 29.1868C193.952 29.1868 192.915 29.0006 192.08 28.6283L192.089 28.6326Z" fill="#FBFBFB"></path><defs><linearGradient id="paint0_linear_557_1636" x1="0.941429" y1="20.0002" x2="43.3985" y2="20.0002" gradientUnits="userSpaceOnUse"><stop stop-color="#0AF6A1"></stop><stop offset="0.34" stop-color="#1FC7D1"></stop><stop offset="0.68" stop-color="#5F7DA1"></stop><stop offset="1" stop-color="#C172FF"></stop></linearGradient></defs></svg> 