<?xml version="1.0" encoding="UTF-8"?> <svg xmlns="http://www.w3.org/2000/svg" width="49" height="73" viewBox="0 0 49 73" fill="none"><path d="M41.1147 0.187134H7.70208C3.72448 0.187134 0.5 3.40318 0.5 7.37037V65.0039C0.5 68.9711 3.72448 72.1871 7.70208 72.1871H41.1147C45.0923 72.1871 48.3168 68.9711 48.3168 65.0039V7.37037C48.3168 3.40318 45.0923 0.187134 41.1147 0.187134Z" fill="#1D1E24"></path><path d="M40.5 3.18713H8.5C5.73858 3.18713 3.5 5.42571 3.5 8.18713V64.1871C3.5 66.9486 5.73858 69.1871 8.5 69.1871H40.5C43.2614 69.1871 45.5 66.9486 45.5 64.1871V8.18713C45.5 5.42571 43.2614 3.18713 40.5 3.18713Z" fill="url(#paint0_linear_557_1714)"></path><path d="M40.4998 26.795H8.84703C8.65534 26.795 8.49994 26.95 8.49994 27.1412V27.4116C8.49994 27.6028 8.65534 27.7578 8.84703 27.7578H40.4998C40.6915 27.7578 40.8469 27.6028 40.8469 27.4116V27.1412C40.8469 26.95 40.6915 26.795 40.4998 26.795Z" fill="#7BFFCD"></path><path d="M33.2868 65.1871H15.713C15.5953 65.1871 15.4999 65.3481 15.4999 65.5467V65.8276C15.4999 66.0262 15.5953 66.1871 15.713 66.1871H33.2868C33.4045 66.1871 33.4999 66.0262 33.4999 65.8276V65.5467C33.4999 65.3481 33.4045 65.1871 33.2868 65.1871Z" fill="#7BFFCD"></path><path d="M29.1045 20.2554C28.8984 20.2554 28.7249 20.0877 28.7249 19.8768V7.56577C28.7249 7.36022 28.893 7.18713 29.1045 7.18713C29.316 7.18713 29.4841 7.35482 29.4841 7.56577V19.8768C29.4841 20.0823 29.316 20.2554 29.1045 20.2554Z" fill="#D9A9FF"></path><path d="M36.211 24.5502C36.0049 24.5502 35.8314 24.3825 35.8314 24.1716V11.8606C35.8314 11.655 35.9995 11.4819 36.211 11.4819C36.4225 11.4819 36.5906 11.6496 36.5906 11.8606V24.1716C36.5906 24.3771 36.4225 24.5502 36.211 24.5502Z" fill="#D9A9FF"></path><path d="M21.0522 24.5502C20.8461 24.5502 20.6725 24.3825 20.6725 24.1716V7.56577C20.6725 7.36022 20.8407 7.18713 21.0522 7.18713C21.2637 7.18713 21.4318 7.35482 21.4318 7.56577V24.1716C21.4318 24.3771 21.2637 24.5502 21.0522 24.5502Z" fill="#7BFFCD"></path><path d="M21.7032 13.1425H20.5209C19.853 13.1425 19.3115 13.6826 19.3115 14.3487V19.0438C19.3115 19.71 19.853 20.25 20.5209 20.25H21.7032C22.3711 20.25 22.9126 19.71 22.9126 19.0438V14.3487C22.9126 13.6826 22.3711 13.1425 21.7032 13.1425Z" fill="#7BFFCD"></path><path d="M13.235 24.5502C13.029 24.5502 12.8554 24.3933 12.8554 24.204V15.7334C12.8554 15.5441 13.0235 15.3872 13.235 15.3872C13.4465 15.3872 13.6147 15.5441 13.6147 15.7334V24.204C13.6147 24.3933 13.4465 24.5502 13.235 24.5502Z" fill="#7BFFCD"></path><path d="M13.8916 19.4062H12.7093C12.0414 19.4062 11.4999 19.9462 11.4999 20.6124V22.273C11.4999 22.9392 12.0414 23.4792 12.7093 23.4792H13.8916C14.5595 23.4792 15.101 22.9392 15.101 22.273V20.6124C15.101 19.9462 14.5595 19.4062 13.8916 19.4062Z" fill="#7BFFCD"></path><path d="M29.5195 9.61584H28.3373C27.6693 9.61584 27.1279 10.1559 27.1279 10.8221V14.1811C27.1279 14.8473 27.6693 15.3873 28.3373 15.3873H29.5195C30.1874 15.3873 30.7289 14.8473 30.7289 14.1811V10.8221C30.7289 10.1559 30.1874 9.61584 29.5195 9.61584Z" fill="#D9A9FF"></path><path d="M36.6269 17.0587H35.4447C34.7768 17.0587 34.2353 17.5988 34.2353 18.2649V20.9208C34.2353 21.587 34.7768 22.127 35.4447 22.127H36.6269C37.2949 22.127 37.8363 21.587 37.8363 20.9208V18.2649C37.8363 17.5988 37.2949 17.0587 36.6269 17.0587Z" fill="#D9A9FF"></path><path d="M24.9053 34.1871H10.0727C9.20414 34.1871 8.5 34.8894 8.5 35.7558V42.6523C8.5 43.5186 9.20414 44.2209 10.0727 44.2209H24.9053C25.7739 44.2209 26.4781 43.5186 26.4781 42.6523V35.7558C26.4781 34.8894 25.7739 34.1871 24.9053 34.1871Z" fill="#7BFFCD"></path><path d="M38.7867 45.7571H32.0727C31.2041 45.7571 30.5 46.4594 30.5 47.3258V53.1878C30.5 54.0542 31.2041 54.7565 32.0727 54.7565H38.7867C39.6553 54.7565 40.3595 54.0542 40.3595 53.1878V47.3258C40.3595 46.4594 39.6553 45.7571 38.7867 45.7571Z" fill="#D9A9FF"></path><path d="M38.5552 35.2418H32.8147C31.854 35.2418 31.0752 35.9297 31.0752 36.7783V39.6553C31.0752 40.5039 31.854 41.1918 32.8147 41.1918H38.5552C39.5159 41.1918 40.2947 40.5039 40.2947 39.6553V36.7783C40.2947 35.9297 39.5159 35.2418 38.5552 35.2418Z" fill="#D9A9FF"></path><path d="M39.8208 42.2738H31.5491C31.2874 42.2738 31.0752 42.516 31.0752 42.8147C31.0752 43.1134 31.2874 43.3556 31.5491 43.3556H39.8208C40.0826 43.3556 40.2947 43.1134 40.2947 42.8147C40.2947 42.516 40.0826 42.2738 39.8208 42.2738Z" fill="#D9A9FF"></path><path d="M17.1395 47.1743H9.94281C9.3857 47.1743 8.93408 47.6235 8.93408 48.1777C8.93408 48.7319 9.3857 49.1811 9.94281 49.1811H17.1395C17.6966 49.1811 18.1482 48.7319 18.1482 48.1777C18.1482 47.6235 17.6966 47.1743 17.1395 47.1743Z" fill="#7BFFCD"></path><path d="M25.4369 50.4901H9.42209C9.18547 50.4901 8.99365 50.6802 8.99365 50.9147C8.99365 51.1492 9.18547 51.3393 9.42209 51.3393H25.4369C25.6736 51.3393 25.8654 51.1492 25.8654 50.9147C25.8654 50.6802 25.6736 50.4901 25.4369 50.4901Z" fill="#7BFFCD"></path><path d="M21.4369 52.8376H9.42209C9.18547 52.8376 8.99365 53.0277 8.99365 53.2622C8.99365 53.4967 9.18547 53.6868 9.42209 53.6868H21.4369C21.6736 53.6868 21.8654 53.4967 21.8654 53.2622C21.8654 53.0277 21.6736 52.8376 21.4369 52.8376Z" fill="#7BFFCD"></path><defs><linearGradient id="paint0_linear_557_1714" x1="3.5" y1="36.1871" x2="45.9569" y2="39.8539" gradientUnits="userSpaceOnUse"><stop stop-color="#0AF6A1"></stop><stop offset="0.338535" stop-color="#1FC7D1"></stop><stop offset="0.677091" stop-color="#5F7DA1"></stop><stop offset="1" stop-color="#C172FF"></stop></linearGradient></defs></svg> 