<?xml version="1.0" encoding="UTF-8"?> <svg xmlns="http://www.w3.org/2000/svg" width="64" height="73" viewBox="0 0 64 73" fill="none"><path d="M32.131 72.1871C56.1988 60.5883 65.3557 33.4762 63.5386 9.82725C55.9705 9.37592 41.2139 5.30808 32.131 0.187134C23.0482 5.30513 8.2945 9.37297 0.723487 9.8243C-1.09367 33.4733 8.06327 60.5883 32.131 72.1842V72.1871Z" fill="#0B0F2F"></path><path d="M32.0001 68.1871C53.6859 57.8768 61.9355 33.7772 60.2988 12.7549C53.4784 12.3533 40.1834 8.73831 32.0001 4.18713C23.8167 8.73831 10.5188 12.3533 3.70131 12.7549C2.06463 33.7772 10.3142 57.8768 32.0001 68.1871Z" fill="url(#paint0_linear_557_573)"></path><path d="M32.898 21.6385H30.4671C27.5117 21.6385 25.115 24.0235 25.115 26.9644V30.9545H27.8708V27.2338C27.8708 25.6286 29.1789 24.3298 30.7891 24.3298H32.5731C34.1862 24.3298 35.4914 25.6315 35.4914 27.2338V30.9545H38.2473V26.9644C38.2473 24.0235 35.8505 21.6385 32.8952 21.6385H32.898Z" fill="#7BFFCD"></path><path d="M38.0592 30.7277H25.3031C23.8839 30.7277 22.7354 31.8705 22.7354 33.2828V42.1026C22.7354 43.5149 23.8839 44.6577 25.3031 44.6577H38.0592C39.4784 44.6577 40.6269 43.5149 40.6269 42.1026V33.2828C40.6269 31.8705 39.4784 30.7277 38.0592 30.7277ZM32.5418 38.2145V39.3489C32.5418 39.8792 32.1086 40.3103 31.5757 40.3103C31.0428 40.3103 30.6096 39.8792 30.6096 39.3489V38.1833C30.0083 37.8175 29.6235 37.1312 29.7062 36.3626C29.7974 35.492 30.507 34.7802 31.3819 34.6838C32.5304 34.5562 33.5051 35.4495 33.5051 36.5668C33.5051 37.273 33.1146 37.8884 32.539 38.2145H32.5418Z" fill="#7BFFCD"></path><defs><linearGradient id="paint0_linear_557_573" x1="3.50006" y1="36.1871" x2="60.714" y2="43.1026" gradientUnits="userSpaceOnUse"><stop stop-color="#0AF6A1"></stop><stop offset="0.338535" stop-color="#1FC7D1"></stop><stop offset="0.677091" stop-color="#5F7DA1"></stop><stop offset="1" stop-color="#C172FF"></stop></linearGradient></defs></svg> 